<?xml version="1.0" encoding="UTF-8"?>
<svg id="Layer_1" xmlns="http://www.w3.org/2000/svg" version="1.1" viewBox="0 0 512 512">
  <!-- Generator: Adobe Illustrator 30.4.0, SVG Export Plug-In . SVG Version: 2.1.4 Build 226)  -->
  <path d="M38.96,39.04C13.36,64.43-.08,97.71-.08,133.33c0,162.77,215.89,378.88,378.88,378.88,35.84,0,68.91-13.44,93.44-37.97l21.33-24.53c24.75-24.75,24.75-66.56-1.07-92.37-.64-.64-52.05-40.11-52.05-40.11-25.39-24.53-65.92-24.53-91.31,0l-31.15,24.96c-68.27-29.01-116.69-77.65-147.84-148.27l24.75-31.15c24.32-25.39,24.32-65.71,0-91.31,0,0-39.47-51.41-40.11-52.05-25.81-25.81-67.63-25.81-93.44,0l-22.4,19.41v.21ZM378.8,469.33c-127.79,0-336.21-187.73-336.21-336.21,0-24.32,9.17-46.72,25.6-63.15l22.4-19.41c9.81-9.81,24.11-10.03,33.28-1.71,0,0,39.25,50.99,39.89,51.63,9.17,9.17,9.17,23.89,0,33.07-.43.43-34.77,43.52-34.77,43.52-4.91,6.19-5.97,14.29-3.2,21.33,36.48,91.09,99.84,154.24,188.16,187.95,7.04,2.77,14.93,1.49,20.91-3.2,0,0,42.88-34.35,43.52-34.99,8.96-8.75,24.32-8.75,33.07,0,.64.64,51.63,39.89,51.63,39.89,8.32,9.17,7.89,23.47-.85,32.21l-21.33,24.53c-15.36,15.57-37.76,24.53-62.08,24.53h0Z" style="fill: #db0038;"/>
</svg>