<?xml version="1.0" encoding="UTF-8"?>
<svg id="Capa_1" xmlns="http://www.w3.org/2000/svg" version="1.1" viewBox="0 0 262.47 46.81">
  <!-- Generator: Adobe Illustrator 30.4.0, SVG Export Plug-In . SVG Version: 2.1.4 Build 226)  -->
  <g>
    <path d="M28.56,38.66l16.14.04c.83,0,1.54.2,2.36.66.25.14.56.15.82.02.26-.13.44-.38.48-.67l7.04-.04c.48,0,7.83,0,8.28,0l19.37.03c.29,0,.62.22.96.45.16.11.33.22.51.32.13.07.28.11.43.11s.29-.04.42-.11c.26-.14.44-.41.46-.71,0-.03,0-.05,0-.08l9.77-.05c.23,0,.46-.1.62-.26.16-.17.26-.39.25-.63l-.06-4.77c0-.26-.12-.5-.32-.67-.2-.16-.82-1.03-.72-1.34s.03-.64-.19-.87c-.74-.8-1.59-1.71-2.64-2.46-.04-.03-.09-.06-.14-.08-2.69-1.26-5.28-1.8-7.9-1.65-.4.02-.74.32-.81.72,0,.03,0,.06-.01.09-3.17-.84-6.59-1.46-10.11-1.83,0,0,0,0,0,0,.11-.37-.02-.76-.34-.98-2.81-1.95-5.9-3.46-9.24-4.52,0-.2-.07-.4-.22-.54-2.71-2.54-10.21-6.81-16.65-8.85-.19-.06-.38-.03-.55.06-.09-.17-.23-.3-.42-.35-5.47-1.61-10.96-2.1-16.35-1.46-.63.07-1.27.17-1.9.27-.23.04-1.46.27-1.46.27,1.64-.8,2.63-.99,3.15-1.21s.54-.78.54-.78c-.05-.36-.35-.62-.72-.61-.22,0-5.36.19-10.77,2.62-7.24,3.25-11.4,8.99-12.03,16.59,0,.01,0,.03,0,.04-.15,5.36,1.58,10.26,2.63,12.7.11.26.37.43.65.43h9.53l9.12.12ZM45.77,25.78s0-.07,0-.1c.02.03.04.07.06.1h-.05Z"/>
    <g>
      <path d="M95.54,32.98l-2.31.4c-.5-.51-1.02-1.61-1.86-1.69-3.67.3-7.22.34-10.88-.04-1.63-.17-2.98.39-3.99,1.74l-6.61-.37-7.71-3.45,8.35.71c5.4.62,10.72,1.06,16.18,1.12,2.7.03,5.2-.18,7.84-.7-.81-.88-1.56-1.67-2.51-2.35-2.3-1.08-4.79-1.72-7.48-1.57,2.03.92,4.18,1.47,5.85,3.14-5.99-2.58-13.29-3.99-19.82-4.41l-4.74-.63c-.64-.08-1.28.06-1.89-.2l8.78-.07c-9.56-6.63-21.48-7.3-32.95-5.18l2.12,1.26c2.12,1.26,3.8,2.93,4.94,5.16l13.49-.1c4.64-.03,9.11.53,13.48,1.91,1.39.44,2.67.99,3.72,2.07-3.41-1.22-6.81-1.95-10.38-2.34l-3.36-.58-4.18-.15h-22.52c-3.95-2.6-9.28-2.08-13.92-1.02-.29.07-.81-.1-.96.31-.52,1.47-.9,3.05-1.01,4.66l.32,3.04c.1.93.13,1.82-.45,2.59.7.56,1.29,1.08,2.07,1.35-.24-2.82.43-6.18,2.99-6.25,2.18.77,2.65,3.88,2.41,6.45l16.14.04c1.02,0,1.88.26,2.79.78l.08-.59c.02-.12.22-.17.44-.17l7.39-.03c.04-1.83.55-3.55,1.79-4.92,1.39-1.49,3.45-1.4,4.71.13,1.15,1.32,1.64,3,1.79,4.78l19.37.03c.76,0,1.33.57,1.89.88.02-.27,0-.7.19-.9l10.46-.05-.06-4.77ZM29.39,30.23c-.81-.88-1.98-1.77-3.25-1.86-1.17-.08-2.16.71-3.14,1.28.44-1.51,1.88-2.39,3.51-2.32,3.01.12,4.9,3.06,4.8,6.25-.64-1.18-.99-2.34-1.92-3.35ZM55.29,32.66l-5.95-1.17-12.97-2.41c.69-.25,1.27,0,1.93.03l18.32.84-1.33,2.71Z" style="fill: #fff;"/>
      <path d="M37.58,25.74l7.31.02c-1.4-2.78-3.56-4.64-6.13-6.1l-2.85,1.04c-2.28.83-4.44,1.84-6.24,3.6l3.59-.03c1.57-.02,3.01.6,4.32,1.48Z" style="fill: #fff;"/>
    </g>
    <path d="M12.66,37.84v-.13s-3.71-7.42-2.23-15.17c1.48-7.75,6.92-12.92,19.02-15.67,0,0-20.63.63-22.12,18.57-.15,5.33,1.65,10.25,2.57,12.41h2.75Z" style="fill: #fff;"/>
    <g>
      <path d="M46.92,10.64l-.08,3.49c6.47,1.85,10.98,4.2,10.98,4.2,0,0,3.51.36,5.48,1.01-2.56-2.4-9.84-6.62-16.38-8.69Z" style="fill: #ef1c25;"/>
      <path d="M28.04,9.18l2.49,3.8c4.74-1.06,9.9-.47,14.47.66l.91,1.09.06-4.38c-5.42-1.59-11.46-2.25-17.93-1.17Z" style="fill: #ef1c25;"/>
      <path d="M13.01,19.15l5.17,3.08c1.28-2.78,3.68-5.43,7.76-7.58.73-.38,1.48-.71,2.25-.99l2.79,1.21-4.36-5.42c-7.57,1.74-11.65,5.44-13.61,9.7Z" style="fill: #ef1c25;"/>
      <path d="M19.7,24.22l-7.1-4.08c-2.44,6.47-.39,13.92,1.63,17.7h5.22c-1.51-2.93-3.39-8.16-2.07-13.33l2.32-.3Z" style="fill: #ef1c25;"/>
    </g>
  </g>
  <g>
    <path d="M234.48,23.54l-13.92-.02-2.87,14.7,4.78-.09.75-3.82h5.17s2.35,5.09,2.35,5.09c.2.43.4,1.52,1.05,1.52h3.97s-2.83-6.59-2.83-6.59c1.48.09,2.84-.47,3.1-1.82l1.16-6.11c.01-1.66-1.02-2.87-2.71-2.87ZM231.64,30.51l-7.72.05.36-2.58-1.67-.81,9.73.03c-.02,1.19-.22,2.22-.7,3.3Z" style="fill: #fff;"/>
    <path d="M213.03,23.59l-10.11-.04c-1.48,0-2.38,1.12-2.64,2.46l-2.41,12.04h4.44s.81-4.15.81-4.15h6.21s-.8,4.16-.8,4.16h4.4s2.27-11.73,2.27-11.73c.26-1.36-.66-2.73-2.18-2.74ZM210.05,30.53l-6.26-.02.53-2.7c-.55-.53-1.2-.41-1.94-.76l8.26-.06-.59,3.54Z" style="fill: #fff;"/>
    <path d="M251.42,27.98l4.29.03c.17-.78.32-1.53.23-2.38-.13-1.15-1.06-2.07-2.27-2.07l-9.65-.03c-1.52,0-2.67.97-2.94,2.47l-.59,3.15c-.3,1.64.75,3.11,2.49,3.16l7.18.17c.28.23.04.98,0,1.33.44.49,1.33.45,1.89.89h-7.81c-.34.01-.49-.61-.41-.88l-4.23-.03c-.25.96-.4,1.97.07,2.94.35.73,1.29,1.31,2.17,1.31h9.71c1.14-.01,2.12-.8,2.41-1.73.46-1.47.76-2.93.89-4.45.12-1.38-.93-2.52-2.3-2.54l-7.39-.11c-.08-.52,0-.91.15-1.36-.66-.3-1.32-.33-1.94-.76l7.84-.12c.22,0,.36.3.33.43l-.14.57Z" style="fill: #fff;"/>
    <path d="M193.05,23.51l-10.55.08c-1.36.01-2.14.99-2.37,2.17l-1.8,9.29c-.16.81-.09,1.56.45,2.14.4.43,1.08.84,1.85.84l10.33.03c1.29,0,2.43-.72,2.7-1.94l.64-2.91-4.39.06c.06.32-.05,1.3-.48,1.3l-6.56-.07,1.24-6.64-1.79-.78,8.57-.1-.05,1.35h4.44c.19-.9.38-1.8.31-2.66-.12-1.5-1.2-2.17-2.55-2.16Z" style="fill: #fff;"/>
    <path d="M172.74,37.98l2.13.1c.23.01.42-.07.51-.13.13-.08.07-.33.1-.49l.48-2.83-2.51.03c-.36,1.13-.71,2.15-.71,3.32Z" style="fill: #ef1c25;"/>
    <path d="M135.08,30.68l-.71,4.05-2.24-11.2-7.58.03-2.92,14.63,4.57.02,1.99-10.47-1.81-.71,2.06-.03c.59,3.8,1.42,7.44,2.22,11.21l7.51-.03,2.84-14.63h-4.48s-1.46,7.12-1.46,7.12Z" style="fill: #ef1c25;"/>
    <path d="M104,35.16c-.17.86.03,1.67.59,2.23.49.49,1.2.81,2.03.82l10.59.03.72-3.64-8.61-.03c-.23,0-.52-.25-.48-.5l.27-1.65,7.92-.05.59-3.18-7.81-.02.24-1.5-2.07-.66c3.84.15,7.53.15,11.34.08l.68-3.57h-13.65s-2.35,11.64-2.35,11.64Z" style="fill: #ef1c25;"/>
    <path d="M160.62,23.56l-14.32-.04-2.96,14.85,4.92-.04.78-3.89h4.7s3.17,6.72,3.17,6.72l4.81-.09-3.05-6.7c1.64.18,2.88-.47,3.16-1.87l1.21-6.06c.08-1.49-.83-2.88-2.42-2.88ZM157.75,28.97c-.1.63-.24,1.58-1.06,1.58l-6.98.08.44-2.52-1.94-.76h9.49c.42.35.11,1.14.04,1.62Z" style="fill: #ef1c25;"/>
    <polygon points="164.82 38.25 169.38 38.22 171.41 27.9 169.23 27.24 171.6 27.17 172.33 23.53 167.76 23.57 164.82 38.25" style="fill: #ef1c25;"/>
  </g>
</svg>